<svg width="16" height="16" viewBox="0 0 16 16" fill="none" xmlns="http://www.w3.org/2000/svg">
<g clip-path="url(#clip0_13211_5971)">
<path fill-rule="evenodd" clip-rule="evenodd" d="M10.6667 2C10.8435 2 11.013 2.07024 11.1381 2.19526C11.2631 2.32029 11.3333 2.48986 11.3333 2.66667V3.33333H12.6667C13.0203 3.33333 13.3594 3.47381 13.6095 3.72386C13.8595 3.97391 14 4.31304 14 4.66667V12.6667C14 13.0203 13.8595 13.3594 13.6095 13.6095C13.3594 13.8595 13.0203 14 12.6667 14H3.33333C2.97971 14 2.64057 13.8595 2.39052 13.6095C2.14048 13.3594 2 13.0203 2 12.6667V4.66667C2 4.31304 2.14048 3.97391 2.39052 3.72386C2.64057 3.47381 2.97971 3.33333 3.33333 3.33333H4.66667V2.66667C4.66667 2.48986 4.7369 2.32029 4.86193 2.19526C4.98695 2.07024 5.15652 2 5.33333 2C5.51014 2 5.67971 2.07024 5.80474 2.19526C5.92976 2.32029 6 2.48986 6 2.66667V3.33333H10V2.66667C10 2.48986 10.0702 2.32029 10.1953 2.19526C10.3203 2.07024 10.4899 2 10.6667 2ZM5.34 10.6667H5.33333C5.16341 10.6669 4.99998 10.7319 4.87642 10.8486C4.75286 10.9652 4.67851 11.1246 4.66855 11.2943C4.65859 11.4639 4.71378 11.6309 4.82284 11.7612C4.9319 11.8915 5.0866 11.9753 5.25533 11.9953L5.34 12C5.51681 12 5.68638 11.9298 5.8114 11.8047C5.93643 11.6797 6.00667 11.5101 6.00667 11.3333C6.00667 11.1565 5.93643 10.987 5.8114 10.8619C5.68638 10.7369 5.51681 10.6667 5.34 10.6667ZM8.00667 10.6667H8C7.83008 10.6669 7.66665 10.7319 7.54309 10.8486C7.41953 10.9652 7.34518 11.1246 7.33522 11.2943C7.32526 11.4639 7.38045 11.6309 7.48951 11.7612C7.59857 11.8915 7.75327 11.9753 7.922 11.9953L8.00667 12C8.18348 12 8.35305 11.9298 8.47807 11.8047C8.6031 11.6797 8.67333 11.5101 8.67333 11.3333C8.67333 11.1565 8.6031 10.987 8.47807 10.8619C8.35305 10.7369 8.18348 10.6667 8.00667 10.6667ZM10.6733 10.6667H10.6667C10.4967 10.6669 10.3333 10.7319 10.2098 10.8486C10.0862 10.9652 10.0118 11.1246 10.0019 11.2943C9.99193 11.4639 10.0471 11.6309 10.1562 11.7612C10.2652 11.8915 10.4199 11.9753 10.5887 11.9953L10.6733 12C10.8501 12 11.0197 11.9298 11.1447 11.8047C11.2698 11.6797 11.34 11.5101 11.34 11.3333C11.34 11.1565 11.2698 10.987 11.1447 10.8619C11.0197 10.7369 10.8501 10.6667 10.6733 10.6667ZM5.34 8H5.33333C5.16341 8.00019 4.99998 8.06525 4.87642 8.1819C4.75286 8.29854 4.67851 8.45797 4.66855 8.6276C4.65859 8.79722 4.71378 8.96425 4.82284 9.09455C4.9319 9.22486 5.0866 9.3086 5.25533 9.32867L5.34 9.33333C5.51681 9.33333 5.68638 9.2631 5.8114 9.13807C5.93643 9.01305 6.00667 8.84348 6.00667 8.66667C6.00667 8.48986 5.93643 8.32029 5.8114 8.19526C5.68638 8.07024 5.51681 8 5.34 8ZM8.00667 8H8C7.83008 8.00019 7.66665 8.06525 7.54309 8.1819C7.41953 8.29854 7.34518 8.45797 7.33522 8.6276C7.32526 8.79722 7.38045 8.96425 7.48951 9.09455C7.59857 9.22486 7.75327 9.3086 7.922 9.32867L8.00667 9.33333C8.18348 9.33333 8.35305 9.2631 8.47807 9.13807C8.6031 9.01305 8.67333 8.84348 8.67333 8.66667C8.67333 8.48986 8.6031 8.32029 8.47807 8.19526C8.35305 8.07024 8.18348 8 8.00667 8ZM10.6733 8H10.6667C10.4967 8.00019 10.3333 8.06525 10.2098 8.1819C10.0862 8.29854 10.0118 8.45797 10.0019 8.6276C9.99193 8.79722 10.0471 8.96425 10.1562 9.09455C10.2652 9.22486 10.4199 9.3086 10.5887 9.32867L10.6733 9.33333C10.8501 9.33333 11.0197 9.2631 11.1447 9.13807C11.2698 9.01305 11.34 8.84348 11.34 8.66667C11.34 8.48986 11.2698 8.32029 11.1447 8.19526C11.0197 8.07024 10.8501 8 10.6733 8ZM12.6667 4.66667H3.33333V6H12.6667V4.66667Z" fill="#919DA6"/>
</g>
<defs>
<clipPath id="clip0_13211_5971">
<rect width="16" height="16" fill="white"/>
</clipPath>
</defs>
</svg>
