<svg width="24" height="24" viewBox="0 0 24 24" fill="none" xmlns="http://www.w3.org/2000/svg">
<g clip-path="url(#clip0_13009_2235)">
<path fill-rule="evenodd" clip-rule="evenodd" d="M9.40495 2.89701C10.1004 2.30445 10.9777 1.9678 11.8909 1.94306C12.8042 1.91831 13.6985 2.20697 14.4249 2.76101L14.5949 2.89701L14.9709 3.21701C15.2446 3.45064 15.5763 3.6061 15.9309 3.66701L16.1089 3.68901L16.6019 3.72901C17.5152 3.80188 18.3758 4.18605 19.0398 4.81729C19.7038 5.44854 20.131 6.28859 20.2499 7.19701L20.2709 7.39701L20.3109 7.89101C20.3393 8.24933 20.4636 8.59339 20.6709 8.88701L20.7809 9.02901L21.1029 9.40501C21.6955 10.1004 22.0322 10.9777 22.0569 11.891C22.0816 12.8043 21.793 13.6985 21.2389 14.425L21.1029 14.595L20.7819 14.971C20.5483 15.2447 20.3929 15.5764 20.3319 15.931L20.3099 16.109L20.2709 16.602C20.1981 17.5153 19.8139 18.3759 19.1827 19.0399C18.5514 19.7039 17.7114 20.1311 16.8029 20.25L16.6019 20.271L16.1089 20.311C15.7506 20.3393 15.4066 20.4637 15.1129 20.671L14.9709 20.782L14.5939 21.102C13.8987 21.6947 13.0214 22.0315 12.1081 22.0565C11.1948 22.0814 10.3005 21.7929 9.57395 21.239L9.40495 21.103L9.02895 20.782C8.75526 20.5484 8.4236 20.3929 8.06895 20.332L7.89095 20.311L7.39795 20.271C6.48468 20.1981 5.6241 19.814 4.96009 19.1827C4.29608 18.5515 3.8689 17.7114 3.74995 16.803L3.72895 16.603L3.68895 16.109C3.66063 15.7507 3.53627 15.4066 3.32895 15.113L3.21795 14.971L2.89695 14.594C2.30439 13.8986 1.96774 13.0213 1.943 12.108C1.91825 11.1947 2.20691 10.3005 2.76095 9.57401L2.89695 9.40501L3.21695 9.02901C3.45058 8.75532 3.60604 8.42367 3.66695 8.06901L3.68895 7.89101L3.72895 7.39801C3.80182 6.48474 4.18599 5.62416 4.81723 4.96015C5.44847 4.29615 6.28853 3.86896 7.19695 3.75001L7.39695 3.72901L7.89095 3.68901C8.24926 3.66069 8.59333 3.53633 8.88695 3.32901L9.02895 3.21801L9.40495 2.89701ZM14.4999 13C14.1021 13 13.7206 13.158 13.4393 13.4393C13.158 13.7207 12.9999 14.1022 12.9999 14.5C12.9999 14.8978 13.158 15.2794 13.4393 15.5607C13.7206 15.842 14.1021 16 14.4999 16C14.8978 16 15.2793 15.842 15.5606 15.5607C15.8419 15.2794 15.9999 14.8978 15.9999 14.5C15.9999 14.1022 15.8419 13.7207 15.5606 13.4393C15.2793 13.158 14.8978 13 14.4999 13ZM14.2929 8.29301L8.29295 14.293C8.19744 14.3853 8.12125 14.4956 8.06885 14.6176C8.01644 14.7396 7.98885 14.8708 7.9877 15.0036C7.98654 15.1364 8.01185 15.2681 8.06213 15.391C8.11241 15.5139 8.18666 15.6255 8.28055 15.7194C8.37445 15.8133 8.4861 15.8876 8.60899 15.9378C8.73189 15.9881 8.86357 16.0134 8.99635 16.0123C9.12913 16.0111 9.26035 15.9835 9.38235 15.9311C9.50436 15.8787 9.6147 15.8025 9.70695 15.707L15.7069 9.70701C15.8891 9.51841 15.9899 9.26581 15.9876 9.00361C15.9853 8.74141 15.8802 8.4906 15.6948 8.30519C15.5094 8.11978 15.2585 8.01461 14.9963 8.01234C14.7342 8.01006 14.4816 8.11085 14.2929 8.29301ZM9.49995 8.00001C9.10212 8.00001 8.72059 8.15804 8.43929 8.43935C8.15798 8.72065 7.99995 9.10218 7.99995 9.50001C7.99995 9.89783 8.15798 10.2794 8.43929 10.5607C8.72059 10.842 9.10212 11 9.49995 11C9.89777 11 10.2793 10.842 10.5606 10.5607C10.8419 10.2794 10.9999 9.89783 10.9999 9.50001C10.9999 9.10218 10.8419 8.72065 10.5606 8.43935C10.2793 8.15804 9.89777 8.00001 9.49995 8.00001Z" fill="#16C602"/>
</g>
<defs>
<clipPath id="clip0_13009_2235">
<rect width="24" height="24" fill="white"/>
</clipPath>
</defs>
</svg>
