<svg width="16" height="16" viewBox="0 0 16 16" fill="none" xmlns="http://www.w3.org/2000/svg">
<g clip-path="url(#clip0_13211_5979)">
<path d="M14 7.33466C14 8.87136 13.4223 10.2731 12.4722 11.3347C11.9867 11.8771 11.404 12.3307 10.7515 12.668C8 13.7607 8 15.3347 8 15.3347C8 15.3347 8 13.7607 5.24853 12.668C4.59598 12.3307 4.01327 11.8771 3.52779 11.3347C2.57771 10.2731 2 8.87136 2 7.33466C2 4.02095 4.68629 1.33466 8 1.33466C11.3137 1.33466 14 4.02095 14 7.33466Z" fill="#919DA6"/>
<path d="M8.99924 7.34124C8.99924 6.78895 8.55153 6.34124 7.99924 6.34124C7.44696 6.34124 6.99924 6.78895 6.99924 7.34124C6.99924 7.89352 7.44696 8.34124 7.99924 8.34124C8.55153 8.34124 8.99924 7.89352 8.99924 7.34124Z" fill="white"/>
<path d="M8.99924 7.34124C8.99924 6.82337 8.60561 6.39725 8.10122 6.34617L7.99924 6.34124C7.44696 6.34124 6.99924 6.78895 6.99924 7.34124C6.99924 7.8591 7.39287 8.28523 7.89727 8.3363L7.99924 8.34124C8.51711 8.34124 8.94323 7.9476 8.99431 7.44321L8.99924 7.34124ZM9.84135 7.34124C9.84135 8.3586 9.01661 9.18334 7.99924 9.18334C6.98188 9.18334 6.15714 8.3586 6.15714 7.34124C6.15714 6.32387 6.98188 5.49913 7.99924 5.49913C9.01661 5.49913 9.84135 6.32387 9.84135 7.34124Z" fill="white"/>
</g>
<defs>
<clipPath id="clip0_13211_5979">
<rect width="12" height="13.3333" fill="white" transform="translate(2.00024 1.33334)"/>
</clipPath>
</defs>
</svg>
