<svg width="129" height="34" viewBox="0 0 129 34" fill="none" xmlns="http://www.w3.org/2000/svg">
<path d="M4.864 6.428H9.876L12.76 17.936L20.516 6.428H26.088L21.944 26H16.54L18.36 17.32L12.536 26H10.128L7.944 17.32L6.124 26H0.72L4.864 6.428ZM31.9929 26.42C30.5743 26.42 29.3236 26.1867 28.2409 25.72C27.1769 25.2347 26.3463 24.5627 25.7489 23.704C25.1703 22.8453 24.8809 21.856 24.8809 20.736C24.8809 20.2693 24.9369 19.784 25.0489 19.28C25.3476 17.88 25.9263 16.648 26.7849 15.584C27.6623 14.5013 28.8009 13.6613 30.2009 13.064C31.6009 12.448 33.2156 12.14 35.0449 12.14C36.5009 12.14 37.7703 12.3827 38.8529 12.868C39.9356 13.3533 40.7663 14.0253 41.3449 14.884C41.9236 15.7427 42.2129 16.732 42.2129 17.852C42.2129 18.3 42.1569 18.776 42.0449 19.28C41.7463 20.68 41.1489 21.9213 40.2529 23.004C39.3756 24.068 38.2276 24.908 36.8089 25.524C35.4089 26.1213 33.8036 26.42 31.9929 26.42ZM32.9169 22.08C33.7569 22.08 34.4849 21.828 35.1009 21.324C35.7169 20.82 36.1183 20.1387 36.3049 19.28C36.3609 18.9627 36.3889 18.664 36.3889 18.384C36.3889 17.768 36.2116 17.3013 35.8569 16.984C35.5023 16.6667 34.9236 16.508 34.1209 16.508C33.2809 16.508 32.5529 16.76 31.9369 17.264C31.3396 17.7493 30.9569 18.4213 30.7889 19.28C30.7143 19.6907 30.6769 19.9893 30.6769 20.176C30.6769 21.4453 31.4236 22.08 32.9169 22.08ZM49.4109 26.42C47.9922 26.42 46.7416 26.1867 45.6589 25.72C44.5949 25.2347 43.7642 24.5627 43.1669 23.704C42.5882 22.8453 42.2989 21.856 42.2989 20.736C42.2989 20.2693 42.3549 19.784 42.4669 19.28C42.7656 17.88 43.3442 16.648 44.2029 15.584C45.0802 14.5013 46.2189 13.6613 47.6189 13.064C49.0189 12.448 50.6336 12.14 52.4629 12.14C53.9189 12.14 55.1882 12.3827 56.2709 12.868C57.3536 13.3533 58.1842 14.0253 58.7629 14.884C59.3416 15.7427 59.6309 16.732 59.6309 17.852C59.6309 18.3 59.5749 18.776 59.4629 19.28C59.1642 20.68 58.5669 21.9213 57.6709 23.004C56.7936 24.068 55.6456 24.908 54.2269 25.524C52.8269 26.1213 51.2216 26.42 49.4109 26.42ZM50.3349 22.08C51.1749 22.08 51.9029 21.828 52.5189 21.324C53.1349 20.82 53.5362 20.1387 53.7229 19.28C53.7789 18.9627 53.8069 18.664 53.8069 18.384C53.8069 17.768 53.6296 17.3013 53.2749 16.984C52.9202 16.6667 52.3416 16.508 51.5389 16.508C50.6989 16.508 49.9709 16.76 49.3549 17.264C48.7576 17.7493 48.3749 18.4213 48.2069 19.28C48.1322 19.6907 48.0949 19.9893 48.0949 20.176C48.0949 21.4453 48.8416 22.08 50.3349 22.08ZM62.5838 12.56H67.7638L67.4838 13.848C68.8465 12.7093 70.3398 12.14 71.9638 12.14C72.9531 12.14 73.7091 12.28 74.2318 12.56C74.7731 12.8213 75.1838 13.232 75.4638 13.792C76.1358 13.2693 76.8918 12.868 77.7318 12.588C78.5718 12.2893 79.3931 12.14 80.1958 12.14C81.6331 12.14 82.6691 12.4387 83.3038 13.036C83.9385 13.6147 84.2558 14.464 84.2558 15.584C84.2558 16.144 84.1811 16.7973 84.0318 17.544L82.2398 26H76.8918L78.5158 18.356C78.5718 18.076 78.5998 17.824 78.5998 17.6C78.5998 17.208 78.5065 16.928 78.3198 16.76C78.1331 16.592 77.8158 16.508 77.3678 16.508C76.7145 16.508 76.1545 16.704 75.6878 17.096L73.8118 26H68.4638L70.1158 18.104C70.1718 17.8427 70.1998 17.6187 70.1998 17.432C70.1998 17.1147 70.1158 16.8813 69.9478 16.732C69.7798 16.5827 69.4998 16.508 69.1078 16.508C68.3051 16.508 67.5491 16.9467 66.8398 17.824L65.1038 26H59.7278L62.5838 12.56ZM88.7332 5.308H94.3332L91.6732 17.712L96.7692 12.56H103.181L96.7692 19.028L101.081 26H94.6692L91.1412 20.288L89.9372 26H84.3372L88.7332 5.308ZM108.871 11.048C108.143 11.048 107.555 10.8427 107.107 10.432C106.678 10.0213 106.463 9.48933 106.463 8.836C106.463 8.20133 106.631 7.61333 106.967 7.072C107.303 6.53067 107.751 6.10133 108.311 5.784C108.871 5.448 109.468 5.28 110.103 5.28C110.812 5.28 111.382 5.49467 111.811 5.924C112.259 6.35333 112.483 6.904 112.483 7.576C112.483 7.83733 112.464 8.03333 112.427 8.164C112.24 8.98533 111.802 9.676 111.111 10.236C110.439 10.7773 109.692 11.048 108.871 11.048ZM105.763 12.56H111.363L108.507 26H102.907L105.763 12.56ZM113.744 12.56H119.148L118.868 13.876C119.54 13.316 120.305 12.8867 121.164 12.588C122.023 12.2893 122.881 12.14 123.74 12.14C125.252 12.14 126.391 12.504 127.156 13.232C127.94 13.9413 128.332 14.9307 128.332 16.2C128.332 16.6667 128.276 17.152 128.164 17.656L126.4 26H120.772L122.368 18.44C122.443 18.0293 122.48 17.7587 122.48 17.628C122.48 17.2547 122.368 16.9747 122.144 16.788C121.939 16.6013 121.584 16.508 121.08 16.508C119.96 16.508 118.989 17.012 118.168 18.02L116.488 26H110.888L113.744 12.56Z" fill="#E60000"/>
</svg>
