<svg width="36" height="36" viewBox="0 0 36 36" fill="none" xmlns="http://www.w3.org/2000/svg">
<g clip-path="url(#clip0_13282_11340)">
<path fill-rule="evenodd" clip-rule="evenodd" d="M9.10585 10.4804C10.1494 9.43686 11.5538 9 13.0004 9C15.1036 9 17.083 10.1227 18.0002 11.6666C18.9119 10.1245 20.8817 9 23.0002 9C24.4468 9 25.8513 9.43686 26.8947 10.4804C27.9417 11.5274 28.5001 13.0595 28.5001 15C28.5001 17.7743 26.8218 20.3542 24.9095 22.3632C22.9724 24.3982 20.1314 26.133 18.4609 27H17.5397C15.8692 26.133 13.0282 24.3982 11.0911 22.3632C9.17879 20.3542 7.50049 17.7743 7.50049 15C7.50049 13.0595 8.05891 11.5274 9.10585 10.4804Z" fill="black" fill-opacity="0.5"/>
<path d="M23.0005 8.25C24.5939 8.25005 26.2083 8.73314 27.4253 9.9502L27.647 10.1855C28.7209 11.3926 29.2505 13.0473 29.2505 15C29.2505 17.8747 27.6314 20.4804 25.8179 22.4873L25.4526 22.8799C23.432 25.0026 20.5064 26.7836 18.8062 27.666L18.644 27.75H17.3569L17.1938 27.666C15.5999 26.8387 12.9295 25.2222 10.937 23.2744L10.5483 22.8799C8.59312 20.8258 6.75049 18.0664 6.75049 15C6.75049 12.9171 7.35262 11.1733 8.57568 9.9502L8.80811 9.73047C9.99417 8.67446 11.5065 8.25 13.0005 8.25C14.9434 8.25003 16.8099 9.10536 17.9985 10.417C19.1823 9.10589 21.0452 8.25 23.0005 8.25Z" stroke="black" stroke-opacity="0.5" stroke-width="1.5"/>
<path fill-rule="evenodd" clip-rule="evenodd" d="M9.10585 10.4804C10.1494 9.43686 11.5538 9 13.0004 9C15.1036 9 17.083 10.1227 18.0002 11.6666C18.9119 10.1245 20.8817 9 23.0002 9C24.4468 9 25.8513 9.43686 26.8947 10.4804C27.9417 11.5274 28.5001 13.0595 28.5001 15C28.5001 17.7743 26.8218 20.3542 24.9095 22.3632C22.9724 24.3982 20.1314 26.133 18.4609 27H17.5397C15.8692 26.133 13.0282 24.3982 11.0911 22.3632C9.17879 20.3542 7.50049 17.7743 7.50049 15C7.50049 13.0595 8.05891 11.5274 9.10585 10.4804ZM10.52 11.8946C9.94202 12.4726 9.50045 13.4405 9.50045 15C9.50045 16.9957 10.7421 19.0958 12.5397 20.9843C14.1372 22.6625 16.5481 24.1782 18.0003 25C19.4525 24.1782 21.8634 22.6625 23.4609 20.9843C25.2585 19.0958 26.5002 16.9957 26.5002 15C26.5002 13.4405 26.0586 12.4726 25.4806 11.8946C24.8991 11.3131 24.0536 11 23.0002 11C21.2937 11 19.7147 12.3148 19.11 14.1238C19.037 14.3421 18.8385 14.4994 18.6084 14.4985L18.0003 14.4962H17.4215C17.1955 14.4962 16.9999 14.3436 16.9251 14.1304C16.2897 12.3195 14.6954 11 13.0004 11C11.947 11 11.1015 11.3131 10.52 11.8946Z" fill="white"/>
</g>
<defs>
<clipPath id="clip0_13282_11340">
<rect width="23.9996" height="24" fill="white" transform="translate(6.00049 6)"/>
</clipPath>
</defs>
</svg>
