<svg width="24" height="24" viewBox="0 0 24 24" fill="none" xmlns="http://www.w3.org/2000/svg">
<path d="M11 15H12V14.105L11.1104 14.0061L11 15ZM11 20H10L11.6247 20.7809L11 20ZM21 12L21.6247 12.7809L22.6008 12L21.6247 11.2191L21 12ZM11 4L11.6247 3.21913L10 4H11ZM11 9L11.1168 9.99315L12 9.88925V9H11ZM3.00005 18H2.00005C2.00005 18.4045 2.2437 18.7691 2.61737 18.9239C2.99104 19.0787 3.42116 18.9931 3.70716 18.7071L3.00005 18ZM11 15H10V20H11H12V15H11ZM11 20L11.6247 20.7809L21.6247 12.7809L21 12L20.3753 11.2191L10.3753 19.2191L11 20ZM21 12L21.6247 11.2191L11.6247 3.21913L11 4L10.3753 4.78087L20.3753 12.7809L21 12ZM11 4H10V9H11H12V4H11ZM11 9L10.8832 8.00685C9.36781 8.18513 7.15779 8.72445 5.30804 10.223C3.41348 11.7578 2.00005 14.2174 2.00005 18H3.00005H4.00005C4.00005 14.7826 5.16993 12.9088 6.56701 11.777C8.0089 10.6089 9.79885 10.1482 11.1168 9.99315L11 9ZM3.00005 18C3.70716 18.7071 3.70693 18.7073 3.70671 18.7076C3.70665 18.7076 3.70644 18.7078 3.70633 18.7079C3.70611 18.7082 3.70593 18.7083 3.70581 18.7085C3.70557 18.7087 3.70554 18.7087 3.70571 18.7086C3.70606 18.7082 3.70723 18.7071 3.70922 18.7051C3.7132 18.7012 3.72044 18.6942 3.73086 18.6842C3.7517 18.6643 3.78525 18.6328 3.83087 18.5915C3.9222 18.5087 4.06146 18.3869 4.2438 18.2403C4.60948 17.9463 5.14266 17.5572 5.80461 17.1831C7.13947 16.4286 8.9244 15.7755 10.8896 15.9939L11 15L11.1104 14.0061C8.57565 13.7245 6.36061 14.5714 4.82049 15.4419C4.04494 15.8803 3.42187 16.3349 2.99068 16.6816C2.77458 16.8553 2.60525 17.003 2.48759 17.1097C2.42873 17.1631 2.38268 17.2063 2.35006 17.2374C2.33375 17.253 2.32078 17.2655 2.31124 17.2748C2.30647 17.2795 2.30255 17.2834 2.2995 17.2864C2.29798 17.2879 2.29667 17.2892 2.29557 17.2903C2.29503 17.2908 2.29453 17.2913 2.2941 17.2917C2.29388 17.292 2.29359 17.2923 2.29348 17.2924C2.29321 17.2926 2.29295 17.2929 3.00005 18Z" fill="#292C30"/>
</svg>
