<svg width="33" height="32" viewBox="0 0 33 32" fill="none" xmlns="http://www.w3.org/2000/svg">
<path d="M9.7925 10.7075C9.60486 10.5199 9.49944 10.2654 9.49944 10C9.49944 9.73464 9.60486 9.48014 9.7925 9.2925C9.98014 9.10486 10.2346 8.99944 10.5 8.99944C10.7654 8.99944 11.0199 9.10486 11.2075 9.2925L15.5 13.5863V3C15.5 2.73478 15.6054 2.48043 15.7929 2.29289C15.9804 2.10536 16.2348 2 16.5 2C16.7652 2 17.0196 2.10536 17.2071 2.29289C17.3946 2.48043 17.5 2.73478 17.5 3V13.5863L21.7925 9.2925C21.9801 9.10486 22.2346 8.99944 22.5 8.99944C22.7654 8.99944 23.0199 9.10486 23.2075 9.2925C23.3951 9.48014 23.5006 9.73464 23.5006 10C23.5006 10.2654 23.3951 10.5199 23.2075 10.7075L17.2075 16.7075C17.1146 16.8005 17.0043 16.8742 16.8829 16.9246C16.7615 16.9749 16.6314 17.0008 16.5 17.0008C16.3686 17.0008 16.2385 16.9749 16.1171 16.9246C15.9957 16.8742 15.8854 16.8005 15.7925 16.7075L9.7925 10.7075ZM30.5 17V25C30.5 25.5304 30.2893 26.0391 29.9142 26.4142C29.5391 26.7893 29.0304 27 28.5 27H4.5C3.96957 27 3.46086 26.7893 3.08579 26.4142C2.71071 26.0391 2.5 25.5304 2.5 25V17C2.5 16.4696 2.71071 15.9609 3.08579 15.5858C3.46086 15.2107 3.96957 15 4.5 15H11.05C11.1157 14.9999 11.1807 15.0128 11.2414 15.0379C11.3021 15.063 11.3573 15.0998 11.4038 15.1462L14.375 18.125C14.6537 18.4047 14.9849 18.6266 15.3495 18.778C15.7142 18.9294 16.1052 19.0074 16.5 19.0074C16.8948 19.0074 17.2858 18.9294 17.6505 18.778C18.0151 18.6266 18.3463 18.4047 18.625 18.125L21.6 15.15C21.6923 15.0558 21.8181 15.0019 21.95 15H28.5C29.0304 15 29.5391 15.2107 29.9142 15.5858C30.2893 15.9609 30.5 16.4696 30.5 17ZM25.5 21C25.5 20.7033 25.412 20.4133 25.2472 20.1666C25.0824 19.92 24.8481 19.7277 24.574 19.6142C24.2999 19.5007 23.9983 19.4709 23.7074 19.5288C23.4164 19.5867 23.1491 19.7296 22.9393 19.9393C22.7296 20.1491 22.5867 20.4164 22.5288 20.7074C22.4709 20.9983 22.5007 21.2999 22.6142 21.574C22.7277 21.8481 22.92 22.0824 23.1666 22.2472C23.4133 22.412 23.7033 22.5 24 22.5C24.3978 22.5 24.7794 22.342 25.0607 22.0607C25.342 21.7794 25.5 21.3978 25.5 21Z" fill="white"/>
</svg>
