<svg width="33" height="32" viewBox="0 0 33 32" fill="none" xmlns="http://www.w3.org/2000/svg">
<path d="M31.4137 15.595C31.37 15.4963 30.3112 13.1475 27.9575 10.7937C24.8212 7.6575 20.86 6 16.5 6C12.14 6 8.17874 7.6575 5.04249 10.7937C2.68874 13.1475 1.62499 15.5 1.58624 15.595C1.52938 15.7229 1.5 15.8613 1.5 16.0012C1.5 16.1412 1.52938 16.2796 1.58624 16.4075C1.62999 16.5062 2.68874 18.8538 5.04249 21.2075C8.17874 24.3425 12.14 26 16.5 26C20.86 26 24.8212 24.3425 27.9575 21.2075C30.3112 18.8538 31.37 16.5062 31.4137 16.4075C31.4706 16.2796 31.5 16.1412 31.5 16.0012C31.5 15.8613 31.4706 15.7229 31.4137 15.595ZM16.5 21C15.5111 21 14.5444 20.7068 13.7221 20.1573C12.8999 19.6079 12.259 18.827 11.8806 17.9134C11.5022 16.9998 11.4031 15.9945 11.5961 15.0245C11.789 14.0546 12.2652 13.1637 12.9645 12.4645C13.6637 11.7652 14.5546 11.289 15.5245 11.0961C16.4944 10.9031 17.4998 11.0022 18.4134 11.3806C19.327 11.759 20.1079 12.3999 20.6573 13.2221C21.2067 14.0444 21.5 15.0111 21.5 16C21.5 17.3261 20.9732 18.5979 20.0355 19.5355C19.0978 20.4732 17.8261 21 16.5 21Z" fill="white"/>
</svg>
