<svg width="33" height="32" viewBox="0 0 33 32" fill="none" xmlns="http://www.w3.org/2000/svg">
<path d="M16.5 2.5C13.83 2.5 11.2199 3.29176 8.99981 4.77516C6.77974 6.25856 5.04942 8.36697 4.02763 10.8338C3.00585 13.3006 2.7385 16.015 3.2594 18.6337C3.78031 21.2525 5.06606 23.6579 6.95406 25.5459C8.84207 27.434 11.2475 28.7197 13.8663 29.2406C16.485 29.7615 19.1994 29.4942 21.6662 28.4724C24.133 27.4506 26.2414 25.7203 27.7248 23.5002C29.2082 21.2801 30 18.67 30 16C29.996 12.4208 28.5724 8.98932 26.0416 6.45844C23.5107 3.92756 20.0792 2.50397 16.5 2.5ZM16.5 25.875C15.3947 24.5814 14.5314 23.0995 13.9513 21.5H19.0538C18.7236 22.4045 18.3049 23.2741 17.8038 24.0963C17.4181 24.7235 16.9821 25.3184 16.5 25.875ZM13.1888 18.5C12.9413 16.8425 12.9413 15.1575 13.1888 13.5H19.8138C20.0613 15.1575 20.0613 16.8425 19.8138 18.5H13.1888ZM6.00001 16C5.99997 15.1575 6.10196 14.318 6.30376 13.5H10.1563C9.94793 15.1602 9.94793 16.8398 10.1563 18.5H6.30376C6.10196 17.682 5.99997 16.8425 6.00001 16ZM16.5 6.125C17.6053 7.41855 18.4686 8.90052 19.0488 10.5H13.9488C14.2789 9.59553 14.6976 8.72589 15.1988 7.90375C15.5836 7.27655 16.0188 6.68167 16.5 6.125ZM22.8413 13.5H26.6938C27.0988 15.1421 27.0988 16.8579 26.6938 18.5H22.8438C23.0521 16.8398 23.0521 15.1602 22.8438 13.5H22.8413ZM25.4375 10.5H22.2138C21.7633 8.98797 21.1116 7.54337 20.2763 6.205C22.4189 7.03678 24.2318 8.5447 25.44 10.5H25.4375ZM12.7238 6.205C11.8884 7.54337 11.2367 8.98797 10.7863 10.5H7.56001C8.76817 8.5447 10.5811 7.03678 12.7238 6.205ZM7.56001 21.5H10.7863C11.2367 23.012 11.8884 24.4566 12.7238 25.795C10.5811 24.9632 8.76817 23.4553 7.56001 21.5ZM20.2763 25.795C21.1116 24.4566 21.7633 23.012 22.2138 21.5H25.44C24.2318 23.4553 22.4189 24.9632 20.2763 25.795Z" fill="white"/>
</svg>
