<svg width="33" height="32" viewBox="0 0 33 32" fill="none" xmlns="http://www.w3.org/2000/svg">
<g clip-path="url(#clip0_357_217)">
<path d="M32.2875 13.4888L29.0975 7.10627C28.98 6.87136 28.8173 6.66189 28.6189 6.48983C28.4204 6.31778 28.19 6.1865 27.9408 6.10351C27.6915 6.02052 27.4284 5.98743 27.1664 6.00613C26.9044 6.02484 26.6487 6.09497 26.4138 6.21252L23.305 7.76627L16.7563 6.03377C16.5882 5.99004 16.4118 5.99004 16.2438 6.03377L9.69501 7.76627L6.58626 6.21252C6.35136 6.09497 6.0956 6.02484 5.8336 6.00613C5.5716 5.98743 5.30847 6.02052 5.05926 6.10351C4.81004 6.1865 4.57962 6.31778 4.38114 6.48983C4.18266 6.66189 4.02002 6.87136 3.90251 7.10627L0.712506 13.4875C0.594951 13.7224 0.524819 13.9782 0.506115 14.2402C0.48741 14.5022 0.5205 14.7653 0.603494 15.0145C0.686489 15.2637 0.817762 15.4942 0.989817 15.6926C1.16187 15.8911 1.37134 16.0538 1.60626 16.1713L4.98126 17.86L11.9175 22.8138C12.0197 22.8865 12.1346 22.9395 12.2563 22.97L20.2563 24.97C20.4238 25.012 20.5994 25.0099 20.7658 24.9639C20.9323 24.9179 21.0841 24.8296 21.2063 24.7075L26.2063 19.7075L28.0913 17.8225L31.3938 16.1713C31.8679 15.9339 32.2283 15.5181 32.3959 15.015C32.5635 14.512 32.5245 13.963 32.2875 13.4888ZM25.4263 17.66L21.125 14.215C20.9323 14.0607 20.6894 13.9831 20.4429 13.9972C20.1964 14.0113 19.9639 14.116 19.79 14.2913C17.5638 16.5338 15.0825 16.25 13.5 15.25L18.905 10H22.8813L26.2825 16.8013L25.4263 17.66ZM20.1925 22.8925L12.9275 21.0763L6.77751 16.6838L10.2775 9.68377L16.5 8.03502L17.725 8.35877L12.1 13.8188L12.09 13.83C11.8783 14.0418 11.7168 14.2984 11.6174 14.5808C11.5181 14.8633 11.4835 15.1645 11.5161 15.4622C11.5488 15.7599 11.6478 16.0464 11.806 16.3007C11.9642 16.5549 12.1774 16.7704 12.43 16.9313C15 18.5725 18.1013 18.3063 20.5438 16.3063L24 19.0825L20.1925 22.8925ZM16.9775 27.2425C16.9235 27.4587 16.7988 27.6506 16.6233 27.7878C16.4478 27.925 16.2315 27.9997 16.0088 28C15.9266 27.9999 15.8447 27.9898 15.765 27.97L10.5513 26.6663C10.4294 26.6362 10.3145 26.5832 10.2125 26.51L6.91876 24.1575C6.71623 23.9985 6.58285 23.7675 6.54639 23.5126C6.50992 23.2577 6.57318 22.9986 6.723 22.7892C6.87281 22.5797 7.09763 22.4362 7.35065 22.3884C7.60366 22.3406 7.86536 22.3922 8.08126 22.5325L11.22 24.775L16.25 26.03C16.5072 26.0944 16.7284 26.2583 16.8648 26.4856C17.0012 26.713 17.0418 26.9853 16.9775 27.2425Z" fill="white"/>
</g>
<defs>
<clipPath id="clip0_357_217">
<rect width="32" height="32" fill="white" transform="translate(0.5)"/>
</clipPath>
</defs>
</svg>
