<svg width="33" height="32" viewBox="0 0 33 32" fill="none" xmlns="http://www.w3.org/2000/svg">
<path d="M29.7862 14.3563L24.1612 19.21L25.875 26.4688C25.9695 26.8628 25.9452 27.2761 25.805 27.6563C25.6648 28.0365 25.4151 28.3666 25.0874 28.605C24.7597 28.8433 24.3687 28.9792 23.9638 28.9955C23.5589 29.0117 23.1582 28.9076 22.8125 28.6963L16.5 24.8113L10.1837 28.6963C9.83802 28.9064 9.43786 29.0095 9.03366 28.9927C8.62945 28.9758 8.23926 28.8398 7.91224 28.6016C7.58521 28.3635 7.33595 28.0339 7.19586 27.6543C7.05577 27.2748 7.03111 26.8623 7.12498 26.4688L8.84498 19.21L3.21998 14.3563C2.91411 14.0919 2.69289 13.7433 2.58396 13.354C2.47503 12.9646 2.48322 12.5518 2.6075 12.1671C2.73178 11.7824 2.96665 11.4428 3.28277 11.1908C3.59889 10.9388 3.98225 10.7855 4.38498 10.75L11.76 10.155L14.605 3.27004C14.759 2.89481 15.0211 2.57385 15.3579 2.34796C15.6948 2.12208 16.0913 2.00146 16.4969 2.00146C16.9025 2.00146 17.2989 2.12208 17.6358 2.34796C17.9726 2.57385 18.2347 2.89481 18.3887 3.27004L21.2325 10.155L28.6075 10.75C29.011 10.7842 29.3955 10.9366 29.7128 11.1883C30.03 11.44 30.266 11.7797 30.391 12.1649C30.5161 12.55 30.5247 12.9636 30.4158 13.3536C30.3069 13.7437 30.0853 14.0929 29.7787 14.3575L29.7862 14.3563Z" fill="white"/>
</svg>
