<svg width="33" height="32" viewBox="0 0 33 32" fill="none" xmlns="http://www.w3.org/2000/svg">
<path d="M8.51501 18.4749C8.5184 18.5427 8.50798 18.6104 8.48438 18.674C8.46077 18.7376 8.42448 18.7957 8.37771 18.8448C8.33094 18.8939 8.27466 18.933 8.21231 18.9596C8.14996 18.9863 8.08283 19 8.01501 18.9999H2.50001C2.27431 19.0003 2.05512 18.9243 1.87811 18.7842C1.70109 18.6442 1.57664 18.4484 1.52501 18.2287C1.49286 18.0783 1.49435 17.9227 1.52935 17.7729C1.56436 17.6232 1.63203 17.483 1.72751 17.3624C2.60977 16.1924 3.78038 15.2712 5.12501 14.6887C4.53467 14.1505 4.0819 13.4786 3.80461 12.7294C3.52732 11.9802 3.4336 11.1754 3.53128 10.3825C3.62897 9.58962 3.91522 8.83168 4.36606 8.17218C4.81691 7.51267 5.41922 6.97079 6.12255 6.59192C6.82588 6.21306 7.60976 6.00824 8.40852 5.99462C9.20729 5.981 9.99769 6.15898 10.7135 6.51365C11.4294 6.86832 12.0498 7.38935 12.5229 8.0331C12.9959 8.67686 13.3079 9.4246 13.4325 10.2137C13.4486 10.3198 13.4296 10.4283 13.3784 10.5226C13.3272 10.6169 13.2465 10.6919 13.1488 10.7362C11.7618 11.3774 10.5871 12.402 9.76339 13.689C8.9397 14.9761 8.50133 16.4719 8.50001 17.9999C8.50001 18.1599 8.50001 18.3174 8.51501 18.4749ZM31.265 17.3612C30.3848 16.1925 29.2169 15.2718 27.875 14.6887C28.4654 14.1505 28.9181 13.4786 29.1954 12.7294C29.4727 11.9802 29.5664 11.1754 29.4687 10.3825C29.3711 9.58962 29.0848 8.83168 28.634 8.17218C28.1831 7.51267 27.5808 6.97079 26.8775 6.59192C26.1741 6.21306 25.3903 6.00824 24.5915 5.99462C23.7927 5.981 23.0023 6.15898 22.2865 6.51365C21.5707 6.86832 20.9502 7.38935 20.4772 8.0331C20.0041 8.67686 19.6922 9.4246 19.5675 10.2137C19.5514 10.3198 19.5704 10.4283 19.6216 10.5226C19.6729 10.6169 19.7535 10.6919 19.8513 10.7362C21.2383 11.3774 22.4129 12.402 23.2366 13.689C24.0603 14.9761 24.4987 16.4719 24.5 17.9999C24.5 18.1599 24.5 18.3174 24.485 18.4749C24.4816 18.5427 24.492 18.6104 24.5156 18.674C24.5393 18.7376 24.5755 18.7957 24.6223 18.8448C24.6691 18.8939 24.7254 18.933 24.7877 18.9596C24.8501 18.9863 24.9172 19 24.985 18.9999H30.5C30.7257 19.0003 30.9449 18.9243 31.1219 18.7842C31.2989 18.6442 31.4234 18.4484 31.475 18.2287C31.5074 18.078 31.5059 17.9221 31.4706 17.772C31.4354 17.622 31.3673 17.4817 31.2713 17.3612H31.265ZM20.14 22.7587C21.1357 21.9962 21.8674 20.9408 22.2323 19.7409C22.5972 18.541 22.5769 17.257 22.1744 16.0692C21.7718 14.8814 21.0071 13.8497 19.9879 13.1189C18.9686 12.3882 17.746 11.9952 16.4919 11.9952C15.2377 11.9952 14.0151 12.3882 12.9959 13.1189C11.9766 13.8497 11.212 14.8814 10.8094 16.0692C10.4068 17.257 10.3866 18.541 10.7515 19.7409C11.1164 20.9408 11.8481 21.9962 12.8438 22.7587C11.0769 23.5242 9.60159 24.8353 8.63376 26.4999C8.54599 26.652 8.49978 26.8244 8.49979 27C8.4998 27.1756 8.54602 27.348 8.63382 27.5C8.72161 27.6521 8.84788 27.7783 8.99993 27.8661C9.15198 27.9538 9.32446 28 9.50001 27.9999H23.5C23.6756 28 23.848 27.9538 24.0001 27.8661C24.1521 27.7783 24.2784 27.6521 24.3662 27.5C24.454 27.348 24.5002 27.1756 24.5002 27C24.5002 26.8244 24.454 26.652 24.3663 26.4999C23.3963 24.8342 21.9183 23.523 20.1488 22.7587H20.14Z" fill="white"/>
</svg>
